<svg width="21" height="21" viewBox="0 0 21 21" fill="none" xmlns="http://www.w3.org/2000/svg">
<path d="M10.5 20.9166C4.74688 20.9166 0.0833359 16.2531 0.0833359 10.5C0.0833359 4.74685 4.74688 0.083313 10.5 0.083313C16.2531 0.083313 20.9167 4.74685 20.9167 10.5C20.9167 16.2531 16.2531 20.9166 10.5 20.9166ZM9.775 17.2354C10.4313 17.2354 11.1625 16.9354 12.0625 15.7166L13.0115 14.4458C13.0392 14.4087 13.0592 14.3663 13.0704 14.3213C13.0815 14.2763 13.0836 14.2296 13.0764 14.1838C13.0692 14.1379 13.053 14.094 13.0286 14.0546C13.0042 14.0152 12.9722 13.981 12.9344 13.9541C12.8545 13.8977 12.7565 13.8729 12.6594 13.8844C12.5622 13.896 12.4728 13.9431 12.4083 14.0166L10.8719 15.7656C10.8365 15.8058 10.7893 15.8336 10.737 15.8451C10.6847 15.8565 10.6301 15.8509 10.5813 15.8291C10.5338 15.8083 10.4952 15.7714 10.4724 15.7249C10.4495 15.6784 10.4438 15.6253 10.4563 15.575L12.3917 7.81873C12.4131 7.7342 12.4128 7.64564 12.391 7.56121C12.3692 7.47679 12.3265 7.3992 12.2669 7.33561C12.2072 7.27201 12.1325 7.22444 12.0497 7.19728C11.9668 7.17012 11.8784 7.16424 11.7927 7.18019L8.30313 7.81873C8.23452 7.83133 8.17096 7.86334 8.12 7.91098C8.06904 7.95862 8.03282 8.01987 8.01563 8.08748L7.92604 8.4354C7.91618 8.47392 7.91527 8.5142 7.92339 8.55313C7.93151 8.59206 7.94843 8.62862 7.97287 8.66C7.99731 8.69137 8.02861 8.71674 8.06437 8.73414C8.10013 8.75154 8.1394 8.76052 8.17917 8.7604H9.98125L8.44375 14.9291C8.3875 15.1729 8.29375 15.5854 8.29375 15.8854C8.29375 16.5791 8.70625 17.2354 9.775 17.2354ZM11.6813 6.2604C12.4125 6.2604 12.975 5.82915 13.125 5.1729C13.1625 5.0229 13.1813 4.85415 13.1813 4.74165C13.1813 4.21665 12.7688 3.72915 12 3.72915C11.2688 3.72915 10.7063 4.1604 10.5563 4.81665C10.5214 4.95784 10.5026 5.1025 10.5 5.2479C10.5 5.7729 10.9125 6.2604 11.6813 6.2604Z" fill="white"/>
<path d="M9.775 17.2354C10.4313 17.2354 11.1625 16.9354 12.0625 15.7166L13.0115 14.4458C13.0392 14.4087 13.0592 14.3663 13.0704 14.3213C13.0815 14.2763 13.0836 14.2296 13.0764 14.1838C13.0692 14.1379 13.053 14.094 13.0286 14.0546C13.0042 14.0152 12.9722 13.981 12.9344 13.9541C12.8545 13.8977 12.7565 13.8729 12.6594 13.8844C12.5622 13.896 12.4728 13.9431 12.4083 14.0166L10.8719 15.7656C10.8365 15.8058 10.7893 15.8336 10.737 15.8451C10.6847 15.8565 10.6301 15.8509 10.5813 15.8291C10.5338 15.8083 10.4952 15.7714 10.4724 15.7249C10.4495 15.6784 10.4438 15.6253 10.4563 15.575L12.3917 7.81873C12.4131 7.7342 12.4128 7.64564 12.391 7.56121C12.3692 7.47679 12.3265 7.3992 12.2669 7.33561C12.2072 7.27201 12.1325 7.22444 12.0497 7.19728C11.9668 7.17012 11.8784 7.16424 11.7927 7.18019L8.30313 7.81873C8.23452 7.83133 8.17096 7.86334 8.12 7.91098C8.06904 7.95862 8.03282 8.01987 8.01563 8.08748L7.92604 8.4354C7.91618 8.47392 7.91527 8.5142 7.92339 8.55313C7.93151 8.59206 7.94843 8.62862 7.97287 8.66C7.99731 8.69137 8.02861 8.71674 8.06437 8.73414C8.10013 8.75154 8.1394 8.76052 8.17917 8.7604H9.98125L8.44375 14.9291C8.3875 15.1729 8.29375 15.5854 8.29375 15.8854C8.29375 16.5791 8.70625 17.2354 9.775 17.2354Z" fill="black"/>
<path d="M11.6813 6.2604C12.4125 6.2604 12.975 5.82915 13.125 5.1729C13.1625 5.0229 13.1813 4.85415 13.1813 4.74165C13.1813 4.21665 12.7688 3.72915 12 3.72915C11.2688 3.72915 10.7063 4.1604 10.5563 4.81665C10.5214 4.95784 10.5026 5.1025 10.5 5.2479C10.5 5.7729 10.9125 6.2604 11.6813 6.2604Z" fill="black"/>
</svg>
