<svg width="30" height="25" viewBox="0 0 30 25" fill="none" xmlns="http://www.w3.org/2000/svg">
<path d="M21.25 0V3.57143H4.375C2.51875 3.57143 1 5.17857 1 7.14286V10.7143H4.375V7.14286H21.25V10.7143L28 5.35714L21.25 0ZM7.75 14.2857L1 19.6429L7.75 25V21.4286H24.625C26.4813 21.4286 28 19.8214 28 17.8571V14.2857H24.625V17.8571H7.75V14.2857Z" fill="white"/>
<rect x="15.5" y="10.5" width="14" height="14" rx="7" fill="white"/>
<rect x="15.5" y="10.5" width="14" height="14" rx="7" stroke="black"/>
<path d="M23.8073 13.7273V21H22.2696V15.1868H22.227L20.5615 16.2308V14.8672L22.3619 13.7273H23.8073Z" fill="black"/>
</svg>
