<svg width="15" height="15" viewBox="0 0 15 15" fill="none" xmlns="http://www.w3.org/2000/svg">
<path d="M0 13.5024C0 14.0412 0.230126 14.4691 0.690377 14.7861C0.944308 14.9287 1.21411 15 1.49978 15C1.72197 15 1.94416 14.9445 2.16635 14.8336L14.1884 8.84311C14.4265 8.71632 14.6249 8.53407 14.7836 8.29635C14.9423 8.05864 15.0137 7.78922 14.9978 7.48811C14.982 7.18701 14.9105 6.92552 14.7836 6.70365C14.6566 6.48178 14.4582 6.29952 14.1884 6.15689L2.16635 0.166403C1.94416 0.0554675 1.72197 0 1.49978 0C1.22998 0 0.960179 0.0713155 0.690377 0.213946C0.230126 0.515056 0 0.942948 0 1.49762V13.5024Z" fill="white"/>
</svg>
